<?xml version="1.0" encoding="UTF-8"?>
<svg xmlns="http://www.w3.org/2000/svg" width="200" height="38" viewBox="0 0 200 38" fill="none">
  <g clip-path="url(#clip0_110569_14589)">
    <path d="M192.45 15.888V7.65809H184.207V0.108917H200V15.888H192.45Z" fill="#FF9014"></path>
    <path d="M79.3175 38C76.9074 38 74.706 37.7096 72.7724 37.1332C70.8479 36.5614 69.1186 35.7196 67.6321 34.6304C66.2364 33.6094 64.9632 32.4 63.8398 31.0294L68.7214 25.4861C70.4371 27.6848 72.1914 29.2028 73.9434 29.9993C75.8021 30.8456 77.7539 31.2745 79.7464 31.2745C80.7563 31.2745 81.6891 31.1406 82.5197 30.8774C83.3844 30.6029 84.0697 30.1853 84.5531 29.6408C85.0592 29.0712 85.3157 28.361 85.3157 27.5283C85.3157 26.9043 85.1568 26.3325 84.8414 25.8287C84.5395 25.3477 84.1265 24.9211 83.609 24.5649C83.1188 24.2245 82.5311 23.9114 81.8593 23.6323C81.2034 23.3577 80.4976 23.1172 79.7646 22.9153C79.0361 22.7156 78.2849 22.5409 77.5269 22.3957C75.5094 21.9441 73.7142 21.3768 72.2096 20.712C70.7299 20.0585 69.4862 19.2507 68.5104 18.3091C67.5436 17.3765 66.8151 16.2964 66.3408 15.0961C65.8642 13.8889 65.6236 12.5116 65.6236 11.005C65.6236 9.41207 65.9913 7.92584 66.7198 6.59163C67.4551 5.24154 68.4604 4.06389 69.7064 3.09046C70.9614 2.1125 72.4365 1.34329 74.0955 0.807786C75.759 0.272288 77.5156 0 79.3152 0C81.7231 0 83.8178 0.254135 85.5404 0.760136C87.247 1.2616 88.7312 1.98316 89.9476 2.90894C91.0665 3.75984 92.0469 4.78319 92.8639 5.95402L87.8824 10.744C87.197 9.95665 86.4572 9.28501 85.6742 8.74043C84.7642 8.10963 83.7838 7.61951 82.7625 7.28369C81.7345 6.94787 80.6656 6.77769 79.583 6.77769C78.5005 6.77769 77.4793 6.92291 76.6645 7.20654C75.8226 7.50152 75.1508 7.92357 74.6697 8.46587C74.1636 9.03541 73.9071 9.72747 73.9071 10.5239C73.9071 11.2432 74.125 11.8695 74.5539 12.3823C74.9465 12.8542 75.4799 13.2786 76.1357 13.6461C76.7689 14.0001 77.5065 14.3042 78.3258 14.5447C79.1269 14.7829 79.9757 14.9758 80.8494 15.121C82.7671 15.5068 84.535 16.0219 86.0873 16.6481C87.6282 17.2721 88.9786 18.0413 90.0997 18.9399C91.2026 19.8225 92.0605 20.8777 92.6528 22.078C93.2429 23.2761 93.5424 24.6965 93.5424 26.2939C93.5424 28.7921 92.9297 30.9296 91.7246 32.6473C90.5105 34.374 88.8265 35.7082 86.7205 36.6159C84.5894 37.5348 82.0976 38 79.3152 38H79.3175Z" fill="white"></path>
    <path d="M147.537 38C144.787 38 142.22 37.5326 139.905 36.6113C137.597 35.6924 135.563 34.374 133.866 32.6904C132.166 31.009 130.841 28.9873 129.922 26.6819C129 24.372 128.533 21.7875 128.533 18.9989C128.533 16.2102 129.025 13.7483 129.997 11.4588C130.968 9.16928 132.332 7.15435 134.05 5.46844C135.768 3.7848 137.826 2.45739 140.173 1.52027C142.519 0.580878 145.122 0.106644 147.912 0.106644C149.648 0.106644 151.375 0.335819 153.047 0.787363C154.713 1.23891 156.288 1.91509 157.725 2.80002C159.039 3.60554 160.198 4.56308 161.179 5.64316L156.209 11.3294C155.544 10.6737 154.84 10.0837 154.114 9.57318C153.238 8.95826 152.267 8.47722 151.223 8.1414C150.179 7.80558 149.046 7.6354 147.859 7.6354C146.375 7.6354 144.952 7.90995 143.629 8.44772C142.306 8.98776 141.135 9.76151 140.148 10.7508C139.158 11.7401 138.373 12.9586 137.815 14.3722C137.259 15.7813 136.977 17.3742 136.977 19.1055C136.977 20.8368 137.259 22.3707 137.817 23.7594C138.375 25.1548 139.167 26.3711 140.175 27.3785C141.187 28.3905 142.426 29.1665 143.863 29.6884C145.284 30.2058 146.881 30.4667 148.613 30.4667C149.8 30.4667 150.948 30.2965 152.026 29.963C153.1 29.6294 154.105 29.1688 155.01 28.597C155.737 28.1387 156.406 27.6168 157.008 27.0472L160.897 33.2123C160.074 34.0654 159 34.8437 157.702 35.5313C156.259 36.2959 154.636 36.904 152.873 37.342C151.109 37.7776 149.316 37.9977 147.542 37.9977L147.537 38Z" fill="white"></path>
    <path d="M30.7624 0.857712H0V7.31547H11.4403V37.4622H19.3221V7.31547H30.7624V0.857712Z" fill="white"></path>
    <path d="M105.893 31.0068V22.0666H122.911V15.6112H105.893V7.31547H124.82V0.857712H97.9883V37.4622H125.356V31.0068H105.893Z" fill="white"></path>
    <path d="M63.8398 37.4622L46.0223 0.857712H42.9245L25.0571 37.4622H33.5245L44.4564 13.8004L49.8168 25.5497H42.5319L39.5521 32.0051H52.7649L55.2545 37.4622H63.8398Z" fill="white"></path>
    <path d="M181.052 30.4508C174.768 30.4508 169.655 25.3386 169.655 19.0556C169.655 12.7726 174.762 7.6649 181.041 7.66036V0.108917C170.581 0.115724 162.103 8.59521 162.103 19.0556C162.103 29.516 170.586 38.0023 181.052 38.0023C191.519 38.0023 200.002 29.5205 200.002 19.0556H192.452C192.452 25.3386 187.339 30.4508 181.055 30.4508H181.052Z" fill="white"></path>
  </g>
  <defs>
    <clipPath id="clip0_110569_14589">
      <rect width="200" height="38" fill="white"></rect>
    </clipPath>
  </defs>
</svg>
